<svg width="731pt" height="354pt" version="1.0" viewBox="0 0 731 354" xmlns="http://www.w3.org/2000/svg">
 <g transform="translate(0 354) scale(.1 -.1)">
  <path d="m1580 3534c-99-12-264-49-358-79-140-46-363-158-482-242-122-87-326-291-413-413-84-119-196-342-242-482-64-199-80-306-80-548s16-349 80-548c46-140 158-363 242-482 87-122 291-326 413-413 119-84 342-196 482-242 199-64 306-80 548-80s349 16 548 80c140 46 363 158 482 242 122 87 326 291 413 413 84 119 196 342 242 482 64 199 80 306 80 548s-16 349-80 548c-46 140-158 363-242 482-87 122-291 326-413 413-119 84-342 196-481 241-183 60-300 78-514 81-104 2-206 1-225-1zm-1004-1420c19-9 43-27 54-41 27-34 55-112 44-122-5-5-35-11-66-15-51-5-58-4-58 12 0 10-7 28-16 40-24 34-84 28-102-11-23-48-1-86 106-185 114-106 145-157 145-241 0-62-17-102-60-143-38-36-73-48-142-48-101 0-171 63-191 172l-7 37 46 6c25 4 53 9 62 11 11 3 19-9 30-43 16-56 51-79 92-64 35 13 50 46 42 87-6 35-28 61-154 178-75 70-100 120-101 199 0 92 41 154 119 177 45 14 122 11 157-6zm471-3c62-29 94-84 101-171l5-70h-65-66l-4 54c-6 66-20 86-64 86-60 0-64-16-64-268v-223l26-25c19-20 31-24 52-19 41 10 46 20 50 95l4 70h64 64v-64c0-143-66-216-194-216-66 0-101 12-140 48-52 49-56 70-56 332 0 252 5 285 48 334 48 53 162 71 239 37zm1640 8c35-13 80-55 99-92 8-15 18-57 21-92l6-65h-72-71v54c0 65-16 86-65 86-24 0-38-6-45-19-13-25-14-466 0-491 14-26 57-34 86-15 22 14 24 23 24 85v70h70 70v-62c-1-144-69-218-196-218-79 0-137 29-169 84-25 43-25 44-25 300 0 278 1 285 57 338 15 15 39 31 53 37 34 13 122 13 157 0zm-1307-374v-375h-70-70v375 375h70 70v-375zm458 318-3-58-215-6v-89-89l165-6 3-57 3-58h-86-85v-110-110h115 115v-55-55h-180-180v375 375h175 176l-3-57zm283-145 74-203 3 203 2 202h60 60v-375-375h-57-58l-74 213c-40 116-77 219-82 227s-9-85-9-212v-228h-60-60v375 375h64 63l74-202zm1119 142v-60h-105-105v-90-90h80 80v-60-60h-80-80v-110-110h115 115v-55-55h-185-185v375 375h175 175v-60z"/>
  <path d="m3770 1770v-1770h1770 1770v1770 1770h-1770-1770v-1770zm533 346c69-28 127-136 116-216-4-23-8-25-66-28l-63-3v36c0 20-7 51-14 70-13 30-20 35-49 35-60 0-62-7-62-267 0-235 0-235 24-254 31-25 47-24 76 6 22 21 25 33 25 90v65h-40-40v50 50h105 105v-190-190h-34c-28 0-35 4-40 26l-7 27-22-20c-55-50-135-58-201-20-74 42-81 68-84 339-3 249 2 295 40 343 45 57 157 82 231 51zm490-18c3-13 33-174 67-358s63-343 66-352c5-16-2-18-59-18-73 0-70-5-82 103l-7 57h-68c-77 0-73 5-85-102l-7-58h-65-65l5 28c3 15 34 183 69 374l63 348h81c77 0 82-1 87-22zm337-298v-320h100 100v-55-55h-165-165v375 375h65 65v-320zm400 0v-320h100 100v-55-55h-170-170v375 375h70 70v-320zm618 263-3-58-215-6v-89-89l165-6 3-57 3-58h-86-85v-110-110h115 115v-55-55h-180-180v375 375h175 176l-3-57zm377 38c77-35 105-89 105-201 0-83-14-125-54-168l-30-32 46-143c26-78 49-152 53-165 7-23 5-23-61-20l-68 3-44 150c-24 83-46 152-47 153-2 2-17 1-34-3l-31-7v-149-149h-65-65v375 375h128c102 0 135-4 167-19zm299-118c50-157 42-159 96 25l33 112h68 68l-29-82c-15-46-51-148-79-226l-51-144v-149-149h-65-65v158 157l-75 209c-41 115-75 213-75 217 0 5 29 9 65 9h64l45-137z"/>
  <path d="m4682 1798c-12-78-20-143-18-145s24-3 48-1l44 3-21 138c-12 75-24 139-26 142-3 2-15-59-27-137z"/>
  <path d="m6360 1900v-110h48c26 0 52 4 58 8 22 14 34 52 34 107 0 74-28 105-95 105h-45v-110z"/>
 </g>
</svg>
